<svg xmlns="http://www.w3.org/2000/svg" xmlns:xlink="http://www.w3.org/1999/xlink" viewBox="0 0 71.02 101.51"><defs><style>.cls-1{fill:#1b382b;}.cls-2{fill:url(#Degradado_sin_nombre_20);}.cls-3{fill:#acce22;fill-rule:evenodd;}</style><linearGradient id="Degradado_sin_nombre_20" y1="65.48" x2="68.02" y2="65.48" gradientUnits="userSpaceOnUse"><stop offset="0" stop-color="#fbce05"/><stop offset="1" stop-color="#e07129"/></linearGradient></defs><title>icon</title><g id="Capa_2" data-name="Capa 2"><g id="Capa_1-2" data-name="Capa 1"><path class="cls-1" d="M43.5,70a5,5,0,0,1,1.59,1.49,3.52,3.52,0,0,1,0,3.92,6.14,6.14,0,0,1-1.36,1.46,3.81,3.81,0,0,1-1.82.74,17.53,17.53,0,0,1-2,.1c-2.46-.13-4.92-.2-7.36-.23s-4.89,0-7.35.1q-1.11,2.92-2.37,5.74t-2.79,5.51a45.23,45.23,0,0,1-3.37,5.12,29.25,29.25,0,0,1-4.18,4.44c-.43.39-.91.8-1.43,1.23a12.5,12.5,0,0,1-1.62,1.14,6.83,6.83,0,0,1-1.78.71,2.88,2.88,0,0,1-1.85-.16,4.26,4.26,0,0,1-2-1.62A5,5,0,0,1,3,97.18a13,13,0,0,1,0-1.55,3.52,3.52,0,0,1,.36-1.49,2.54,2.54,0,0,1,.71-.88c.3-.24.61-.48.91-.74a12.3,12.3,0,0,0,1.62-1.69c.47-.6.95-1.23,1.43-1.88a45.41,45.41,0,0,0,3.37-5.25c1-1.82,1.92-3.69,2.78-5.64l-3.2.26-3.28.26-1.46.1A1.45,1.45,0,0,1,5,78a1.52,1.52,0,0,1-.29-1.46,1.67,1.67,0,0,1,.94-1.14,63.77,63.77,0,0,1,11.47-4l2.34-5.25q1.55-3.57,3.24-7.3a29.84,29.84,0,0,1,4.21-6.77,22.53,22.53,0,0,1,3-2.85,11.69,11.69,0,0,1,3.57-2A4.52,4.52,0,0,1,35.1,47a3.13,3.13,0,0,1,1.49.39,1.58,1.58,0,0,1,.78,1A2.26,2.26,0,0,1,37,50.12c-.39.65-.8,1.26-1.23,1.85a11.39,11.39,0,0,0-1.17,2q-1.75,3.77-3.34,7.65c-1.06,2.6-2.08,5.28-3.08,8a86.46,86.46,0,0,1,10.44-.39h2.5A4.38,4.38,0,0,1,43.5,70ZM70.14,41.63A15,15,0,0,1,68.2,43.7c-.74.65-1.47,1.28-2.21,1.88A21.2,21.2,0,0,1,59.74,49a20.14,20.14,0,0,1-7,1.07A26.52,26.52,0,0,1,48,49.5a44.25,44.25,0,0,1-4.63-1.2,32.88,32.88,0,0,1-4.64-1.88q-2.23-1.1-4.5-2.14a16.38,16.38,0,0,0-4-1.16,14.11,14.11,0,0,0-4-.07,11.79,11.79,0,0,0-3.83,1.2,11.08,11.08,0,0,0-3.3,2.69,11.59,11.59,0,0,0-2.37,4.51,16.15,16.15,0,0,0-.55,5.09c0,.69.09,1.34.13,1.94a2.79,2.79,0,0,1-.58,1.82,3.75,3.75,0,0,1-1.27,1.36,4,4,0,0,1-1.78.45,8.1,8.1,0,0,1-2.59-.39,3.14,3.14,0,0,1-1.69-1.16,4.33,4.33,0,0,1-.65-2,19.26,19.26,0,0,1-.1-5.09A14.93,14.93,0,0,1,9,48.69a16.1,16.1,0,0,1,2.62-4,17.68,17.68,0,0,1,3.6-3.08,22.23,22.23,0,0,1,4.28-2.14,25.23,25.23,0,0,1,4.6-1.23,46,46,0,0,1,8.69-.75,57.27,57.27,0,0,1,8.75.75,31.54,31.54,0,0,1,4,.91c1.29.39,2.59.77,3.89,1.13s2.6.67,3.92.91a17,17,0,0,0,4,.23,15.71,15.71,0,0,0,3.24-.59,20.53,20.53,0,0,0,3-1.16,25.53,25.53,0,0,0,2.24-1.4,3.54,3.54,0,0,1,2.43-.61,3,3,0,0,1,2.43,1.23C71.25,39.57,71.05,40.5,70.14,41.63Z"/><path class="cls-2" d="M40.5,66a5,5,0,0,1,1.59,1.49,3.52,3.52,0,0,1,0,3.92,6.14,6.14,0,0,1-1.36,1.46,3.81,3.81,0,0,1-1.82.74,17.53,17.53,0,0,1-2,.1c-2.46-.13-4.92-.2-7.36-.23s-4.89,0-7.35.1q-1.11,2.92-2.37,5.74t-2.79,5.51a45.23,45.23,0,0,1-3.37,5.12,29.25,29.25,0,0,1-4.18,4.44c-.43.39-.91.8-1.43,1.23a12.5,12.5,0,0,1-1.62,1.14,6.83,6.83,0,0,1-1.78.71,2.88,2.88,0,0,1-1.85-.16,4.26,4.26,0,0,1-2-1.62A5,5,0,0,1,0,93.18a13,13,0,0,1,0-1.55,3.52,3.52,0,0,1,.36-1.49,2.54,2.54,0,0,1,.71-.88c.3-.24.61-.48.91-.74a12.3,12.3,0,0,0,1.62-1.69c.47-.6.95-1.23,1.43-1.88A45.41,45.41,0,0,0,8.41,79.7c1-1.82,1.92-3.69,2.78-5.64L8,74.32l-3.28.26-1.46.1A1.45,1.45,0,0,1,2,74a1.52,1.52,0,0,1-.29-1.46,1.67,1.67,0,0,1,.94-1.14,63.77,63.77,0,0,1,11.47-4l2.34-5.25q1.55-3.57,3.24-7.3a29.84,29.84,0,0,1,4.21-6.77,22.53,22.53,0,0,1,3-2.85,11.69,11.69,0,0,1,3.57-2A4.52,4.52,0,0,1,32.1,43a3.13,3.13,0,0,1,1.49.39,1.58,1.58,0,0,1,.78,1A2.26,2.26,0,0,1,34,46.12c-.39.65-.8,1.26-1.23,1.85a11.39,11.39,0,0,0-1.17,2q-1.76,3.77-3.34,7.65c-1.06,2.6-2.08,5.28-3.08,8a86.46,86.46,0,0,1,10.44-.39h2.5A4.38,4.38,0,0,1,40.5,66ZM67.14,37.63A15,15,0,0,1,65.2,39.7c-.74.65-1.47,1.28-2.21,1.88A21.2,21.2,0,0,1,56.74,45a20.14,20.14,0,0,1-7,1.07A26.52,26.52,0,0,1,45,45.5a44.25,44.25,0,0,1-4.63-1.2,32.88,32.88,0,0,1-4.64-1.88q-2.23-1.1-4.5-2.14a16.38,16.38,0,0,0-4-1.16,14.11,14.11,0,0,0-4-.07,11.79,11.79,0,0,0-3.83,1.2,11.08,11.08,0,0,0-3.3,2.69,11.59,11.59,0,0,0-2.37,4.51,16.15,16.15,0,0,0-.55,5.09c0,.69.09,1.34.13,1.94a2.79,2.79,0,0,1-.58,1.82,3.75,3.75,0,0,1-1.27,1.36,4,4,0,0,1-1.78.45,8.1,8.1,0,0,1-2.59-.39,3.14,3.14,0,0,1-1.69-1.16,4.33,4.33,0,0,1-.65-2,19.26,19.26,0,0,1-.1-5.09A14.93,14.93,0,0,1,6,44.69a16.1,16.1,0,0,1,2.62-4,17.68,17.68,0,0,1,3.6-3.08,22.23,22.23,0,0,1,4.28-2.14,25.23,25.23,0,0,1,4.6-1.23,46,46,0,0,1,8.69-.75,57.27,57.27,0,0,1,8.75.75,31.54,31.54,0,0,1,4,.91c1.29.39,2.59.77,3.89,1.13s2.6.67,3.92.91a17,17,0,0,0,4,.23,15.71,15.71,0,0,0,3.24-.59,20.53,20.53,0,0,0,3-1.16,25.53,25.53,0,0,0,2.24-1.4,3.54,3.54,0,0,1,2.43-.61,3,3,0,0,1,2.43,1.23C68.25,35.57,68.05,36.5,67.14,37.63Z"/><path class="cls-3" d="M1.67,4.94q-7.39,27.18,17.89,31l-2.12-4-6-11.23L18.83,31.1l2.61,3.67Q29.3,10.44,1.67,4.94Z"/><path class="cls-3" d="M58.73,0Q64.12,36.77,30.4,37.77l3.41-4.87,9.62-13.76L32.13,31.56l-4,4.39Q21.68,2.84,58.73,0Z"/></g></g></svg>