<svg id="Capa_1" data-name="Capa 1" xmlns="http://www.w3.org/2000/svg" viewBox="0 0 382.49 64.07"><defs><style>.cls-1{fill:#7dbe35;fill-rule:evenodd;}.cls-2{fill:#f1a317;}.cls-3{font-size:30.51px;fill:#acce22;font-family:Poppins-Bold, Poppins;font-weight:700;letter-spacing:0.11em;}</style></defs><title>Mesa de trabajo 6</title><path class="cls-1" d="M2.15,14.44Q-7.35,49.32,25.09,54.2l-2.72-5.1L14.69,34.7,24.15,48l3.35,4.71Q37.58,21.51,2.15,14.44Z"/><path class="cls-1" d="M75.32,8.11Q82.24,55.27,39,56.55l4.37-6.25L55.7,32.66,41.21,48.58l-5.14,5.64Q27.81,11.77,75.32,8.11Z"/><path class="cls-2" d="M120.77,32.51A5.2,5.2,0,0,1,122.36,34a3.54,3.54,0,0,1,0,3.93A5.91,5.91,0,0,1,121,39.38a3.73,3.73,0,0,1-1.82.75,17.53,17.53,0,0,1-2,.1c-2.46-.13-4.92-.21-7.36-.23s-4.89,0-7.35.1C101.75,42,101,44,100.12,45.84s-1.77,3.71-2.79,5.51A45.23,45.23,0,0,1,94,56.47a29.25,29.25,0,0,1-4.18,4.44c-.43.39-.91.8-1.43,1.23a11.52,11.52,0,0,1-1.62,1.13A6.53,6.53,0,0,1,85,64a3,3,0,0,1-1.85-.16,4.22,4.22,0,0,1-2-1.63,5,5,0,0,1-.78-2.46,13,13,0,0,1,0-1.55,3.57,3.57,0,0,1,.36-1.5,2.59,2.59,0,0,1,.71-.87c.3-.24.61-.49.91-.75a12.82,12.82,0,0,0,1.62-1.68c.47-.61,1-1.23,1.43-1.88a47.19,47.19,0,0,0,3.37-5.25q1.48-2.73,2.78-5.64l-3.2.26L85,41.14c-.47,0-1,.07-1.46.09a1.43,1.43,0,0,1-1.26-.68A1.51,1.51,0,0,1,82,39.09,1.66,1.66,0,0,1,82.91,38a64.57,64.57,0,0,1,11.47-4l2.34-5.25q1.55-3.55,3.24-7.29a29.9,29.9,0,0,1,4.21-6.78,23.89,23.89,0,0,1,3-2.85,11.9,11.9,0,0,1,3.57-2,4.52,4.52,0,0,1,1.65-.22,3.25,3.25,0,0,1,1.49.38,1.61,1.61,0,0,1,.78,1,2.28,2.28,0,0,1-.42,1.66c-.39.64-.8,1.26-1.23,1.84a11.88,11.88,0,0,0-1.17,2q-1.75,3.77-3.34,7.65c-1.06,2.59-2.08,5.27-3.08,8a82.55,82.55,0,0,1,10.44-.39h2.5A4.45,4.45,0,0,1,120.77,32.51ZM147.41,4.18a14.55,14.55,0,0,1-1.94,2.08c-.74.65-1.47,1.27-2.21,1.88a21.2,21.2,0,0,1-6.25,3.4,20.38,20.38,0,0,1-7,1.07,27.46,27.46,0,0,1-4.77-.55,44.25,44.25,0,0,1-4.63-1.2A34.12,34.12,0,0,1,116,9c-1.49-.73-3-1.45-4.5-2.14a16.86,16.86,0,0,0-4-1.17,14.47,14.47,0,0,0-4.05-.06,11.33,11.33,0,0,0-3.83,1.2,10.93,10.93,0,0,0-3.3,2.69A11.63,11.63,0,0,0,94,14a16.21,16.21,0,0,0-.55,5.09c0,.7.09,1.34.13,1.95A2.77,2.77,0,0,1,93,22.85a3.67,3.67,0,0,1-1.27,1.36,4,4,0,0,1-1.78.46,8.1,8.1,0,0,1-2.59-.39,3.14,3.14,0,0,1-1.69-1.17A4.29,4.29,0,0,1,85,21.17a19.27,19.27,0,0,1-.1-5.09,14.78,14.78,0,0,1,1.4-4.83,16.1,16.1,0,0,1,2.62-4,17.37,17.37,0,0,1,3.6-3.08A21.67,21.67,0,0,1,96.78,2a25.23,25.23,0,0,1,4.6-1.23A46,46,0,0,1,110.07,0a54.85,54.85,0,0,1,8.75.75,31.51,31.51,0,0,1,4,.9c1.29.39,2.59.77,3.89,1.14s2.6.67,3.92.91a17,17,0,0,0,4,.22,15.7,15.7,0,0,0,3.24-.58,19.54,19.54,0,0,0,3.05-1.17A25.44,25.44,0,0,0,143.17.78,3.54,3.54,0,0,1,145.6.16,3.05,3.05,0,0,1,148,1.39C148.52,2.13,148.32,3.06,147.41,4.18Z"/><path class="cls-2" d="M127.77,36.47c.6-1.17,1.21-2.39,1.81-3.67s1.15-2.51,1.62-3.72a4.31,4.31,0,0,1-1.71-1.62,5.59,5.59,0,0,1-.75-2.27,6.68,6.68,0,0,1,.23-2.53,6.38,6.38,0,0,1,1.26-2.4,5,5,0,0,1,2.08-1.49,6.41,6.41,0,0,1,2.59-.49,4.87,4.87,0,0,1,2.27.59,2.12,2.12,0,0,1,1.1,1.71,6.75,6.75,0,0,1-.29,2.6,20.94,20.94,0,0,1-.94,2.66q4.28-1.82,7.16-1.2a4.5,4.5,0,0,1,3.6,3.79,9.46,9.46,0,0,1-.06,3.66,32.22,32.22,0,0,1-1.14,4.35c-.5,1.49-1,3-1.59,4.4s-1,2.74-1.33,3.86a7.85,7.85,0,0,0-.39,2.69c.07.67.49,1,1.27.88a3.59,3.59,0,0,0,2.11-1.2A23.32,23.32,0,0,0,149,44.25q1.2-1.7,2.43-3.73t2.46-4.05a7,7,0,0,1,2-2.21,1.75,1.75,0,0,1,1.56-.32c.39.17.62.59.68,1.26a4.54,4.54,0,0,1-.62,2.43c-.47,1-1.08,2.15-1.81,3.47s-1.55,2.67-2.43,4a47.91,47.91,0,0,1-2.85,4,18,18,0,0,1-3.15,3.15,10.24,10.24,0,0,1-3.92,1.78,9.11,9.11,0,0,1-3.89,0,7.14,7.14,0,0,1-3.18-1.59,5.29,5.29,0,0,1-1.71-2.92,8.81,8.81,0,0,1,0-3.69,29.58,29.58,0,0,1,1.07-4c.45-1.37.94-2.7,1.45-4s.93-2.5,1.24-3.54.47-1.72.64-2.46a4.14,4.14,0,0,0,.1-1.85,1.24,1.24,0,0,0-.91-1,5.1,5.1,0,0,0-2.49.23h-.07l-4.21,8.42a4.92,4.92,0,0,1-1.75,2,1.74,1.74,0,0,1-1.56.19,1.48,1.48,0,0,1-.81-1.2A3.63,3.63,0,0,1,127.77,36.47Z"/><path class="cls-2" d="M159.86,25a2.46,2.46,0,0,1,2-1.68,6.05,6.05,0,0,1,3.08.29,6.69,6.69,0,0,1,2.66,1.72,3,3,0,0,1,.84,2.66,15.27,15.27,0,0,1-1.65,4.4q-1.26,2.34-2.69,4.74t-2.6,4.66a13.42,13.42,0,0,0-1.42,4.09,2.24,2.24,0,0,0,.68,2.36c.62.46,1.56.36,2.82-.29a11.19,11.19,0,0,0,3.08-2.49,50.83,50.83,0,0,0,3.37-4.09c1.14-1.53,2.27-3.14,3.37-4.83s2.12-3.3,3.05-4.86,1.73-2.93,2.4-4.12,1.15-2.06,1.45-2.62a2.64,2.64,0,0,1,1.46-1.3,4.63,4.63,0,0,1,2-.19,7.54,7.54,0,0,1,4.08,1.91A4,4,0,0,1,189,27a2.12,2.12,0,0,1-.16,1.72,44.7,44.7,0,0,0-5,13.19,13.43,13.43,0,0,0-.22,4.7c.21,1.21.8,1.77,1.75,1.69a3.54,3.54,0,0,0,2.1-1.2,22.43,22.43,0,0,0,2.34-2.82q1.2-1.7,2.43-3.73t2.46-4.05a6.8,6.8,0,0,1,2-2.21,1.75,1.75,0,0,1,1.56-.32c.39.17.61.59.68,1.26a4.64,4.64,0,0,1-.62,2.43c-.47,1-1.11,2.2-1.91,3.6s-1.66,2.83-2.59,4.28-1.89,2.81-2.89,4.09a16.09,16.09,0,0,1-2.85,2.94,9.17,9.17,0,0,1-2.95,1.4,10.22,10.22,0,0,1-3.47.36,8.75,8.75,0,0,1-3.34-.94,6.21,6.21,0,0,1-2.56-2.5,9.75,9.75,0,0,1-1.29-3.44,14.91,14.91,0,0,1-.07-4.66,49.11,49.11,0,0,1-3.86,4.79,29.75,29.75,0,0,1-4.5,4.09A16.05,16.05,0,0,1,161.38,54a11.81,11.81,0,0,1-4.73.55,7,7,0,0,1-3.92-1.65,6.67,6.67,0,0,1-2.14-4.21,11.56,11.56,0,0,1,.42-5.77,36.23,36.23,0,0,1,2.5-5.77c1-1.95,2.16-3.92,3.37-5.9A34.55,34.55,0,0,0,159.86,25Z"/><path class="cls-2" d="M194.22,14.68c1.47-.12,3-.29,4.47-.48s3-.4,4.54-.62a31.65,31.65,0,0,1,2-2.78,19,19,0,0,1,2.17-2.27,8.23,8.23,0,0,1,3.05-1.79,4.47,4.47,0,0,1,2.66,0A3.17,3.17,0,0,1,215,8.27a5.74,5.74,0,0,1,.59,3c2.85-.51,5.27-.93,7.26-1.23a9.12,9.12,0,0,1,3.95-.06,2.13,2.13,0,0,1,1.3,1.46,3.75,3.75,0,0,1-.07,2.07,5.21,5.21,0,0,1-1.13,2,3.66,3.66,0,0,1-2,1.16,8.34,8.34,0,0,1-1.52.23l-2.59.23c-1,.09-2.14.16-3.38.23s-2.51.14-3.85.22a39.63,39.63,0,0,1-3.34,5q-2,2.63-4.64,5.54c-.13.52-.28,1.07-.45,1.66s-.37,1.24-.58,2-.52,1.75-.78,2.89-.5,2.34-.71,3.6a36.86,36.86,0,0,0-.46,3.73,19.75,19.75,0,0,0,0,3.27,6.37,6.37,0,0,0,.58,2.3,1.31,1.31,0,0,0,1.43.75,3.59,3.59,0,0,0,2.11-1.2A23.32,23.32,0,0,0,209,44.25q1.2-1.7,2.43-3.73t2.47-4.05a6.8,6.8,0,0,1,2-2.21,1.73,1.73,0,0,1,1.55-.32c.39.17.62.59.68,1.26a4.61,4.61,0,0,1-.61,2.43q-.72,1.5-1.92,3.6c-.8,1.41-1.66,2.83-2.59,4.28s-1.89,2.81-2.88,4.09a16.44,16.44,0,0,1-2.86,2.94,8.06,8.06,0,0,1-3,1.33,10.1,10.1,0,0,1-3.5.23,8.08,8.08,0,0,1-3.27-1.1,5.62,5.62,0,0,1-2.3-2.66,14.31,14.31,0,0,1-1.24-4.6,28.11,28.11,0,0,1,0-5.35,41.6,41.6,0,0,1,1-5.8q.7-3,1.62-6,.78-2.65,1.78-5.29a53.89,53.89,0,0,1,2.24-5.08c-1.82.08-3.33.15-4.54.19s-2,.09-2.34.13a1.16,1.16,0,0,1-1.2-.42,1.89,1.89,0,0,1-.38-1.3,2.2,2.2,0,0,1,.55-1.36A2.25,2.25,0,0,1,194.22,14.68Z"/><path class="cls-2" d="M226.89,28.1a59.22,59.22,0,0,0-3.14,7.65,38.84,38.84,0,0,0-1.59,6.52,10.91,10.91,0,0,0,.1,4.47c.32,1.1.94,1.61,1.84,1.53a3.59,3.59,0,0,0,2.11-1.2,22.43,22.43,0,0,0,2.33-2.82q1.2-1.7,2.44-3.73l2.46-4.05a6.8,6.8,0,0,1,2-2.21,1.73,1.73,0,0,1,1.55-.32q.58.26.69,1.26a4.74,4.74,0,0,1-.62,2.43c-.48,1-1.11,2.2-1.91,3.6s-1.67,2.83-2.6,4.28-1.88,2.81-2.85,4.09a15.4,15.4,0,0,1-2.82,2.94,7.72,7.72,0,0,1-2.95,1.3,9.56,9.56,0,0,1-3.5.13A10.49,10.49,0,0,1,217,52.84a7.19,7.19,0,0,1-2.7-2.5A10,10,0,0,1,213,45.22a32.48,32.48,0,0,1,.55-7,48,48,0,0,1,2-7.42,35.9,35.9,0,0,1,3.08-6.55,2.32,2.32,0,0,1,2.21-1,8.17,8.17,0,0,1,3.17.65,6.42,6.42,0,0,1,2.53,1.82A2.08,2.08,0,0,1,226.89,28.1Zm-5.51-10.17a6,6,0,0,1,.1-3.44,6.69,6.69,0,0,1,1.72-2.66,7.67,7.67,0,0,1,2.69-1.65,6.48,6.48,0,0,1,3-.39,5.19,5.19,0,0,1,2.62,1,4.92,4.92,0,0,1,1.69,2.69,6,6,0,0,1,0,3.66,6.13,6.13,0,0,1-1.72,2.63,7.52,7.52,0,0,1-5.8,1.81,5.58,5.58,0,0,1-2.72-1.1A4.37,4.37,0,0,1,221.38,17.93Z"/><text class="cls-3" transform="translate(244.79 42.72)">FRESCO</text></svg>