<svg id="Capa_1" data-name="Capa 1" xmlns="http://www.w3.org/2000/svg" viewBox="0 0 157.43 115.68"><defs><style>.cls-1{fill:#f1a317;}.cls-2{font-size:17.99px;fill:#acce22;font-family:Poppins-Bold, Poppins;font-weight:700;letter-spacing:0.11em;}.cls-3{fill:#7dbe35;fill-rule:evenodd;}</style></defs><title>Mesa de trabajo 5</title><path class="cls-1" d="M40.5,63a5.08,5.08,0,0,1,1.59,1.49,3.52,3.52,0,0,1,0,3.92,6,6,0,0,1-1.36,1.46,3.83,3.83,0,0,1-1.82.75c-.6.06-1.27.1-2,.1-2.46-.13-4.92-.21-7.36-.23s-4.89,0-7.35.1q-1.11,2.91-2.37,5.73t-2.79,5.51A44.47,44.47,0,0,1,13.69,87a29.25,29.25,0,0,1-4.18,4.44c-.43.39-.91.8-1.43,1.23a11.52,11.52,0,0,1-1.62,1.13,6.86,6.86,0,0,1-1.78.72,2.88,2.88,0,0,1-1.85-.17,4.14,4.14,0,0,1-2-1.62A5,5,0,0,1,0,90.26,13.14,13.14,0,0,1,0,88.7a3.52,3.52,0,0,1,.36-1.49,2.5,2.5,0,0,1,.71-.87c.3-.24.61-.49.91-.75a12.82,12.82,0,0,0,1.62-1.68L5,82a47.19,47.19,0,0,0,3.37-5.25Q9.9,74,11.19,71.14L8,71.39l-3.28.26c-.47,0-1,.08-1.46.1A1.43,1.43,0,0,1,2,71.07a1.51,1.51,0,0,1-.29-1.46,1.64,1.64,0,0,1,.94-1.13,64.57,64.57,0,0,1,11.47-4l2.34-5.25c1-2.37,2.11-4.81,3.24-7.29A29.9,29.9,0,0,1,23.9,45.2a23.89,23.89,0,0,1,3-2.85,11.69,11.69,0,0,1,3.57-2,4.74,4.74,0,0,1,1.65-.23,3.38,3.38,0,0,1,1.49.39,1.61,1.61,0,0,1,.78,1A2.25,2.25,0,0,1,34,43.19c-.39.65-.8,1.27-1.23,1.85a11.12,11.12,0,0,0-1.17,2q-1.76,3.76-3.34,7.65c-1.06,2.59-2.08,5.27-3.08,8a82.55,82.55,0,0,1,10.44-.39h2.5A4.45,4.45,0,0,1,40.5,63ZM67.14,34.7a14.55,14.55,0,0,1-1.94,2.08c-.74.64-1.47,1.27-2.21,1.88a21.43,21.43,0,0,1-6.25,3.4,20.38,20.38,0,0,1-7,1.07A27.46,27.46,0,0,1,45,42.58c-1.58-.33-3.12-.73-4.63-1.2a35.45,35.45,0,0,1-4.64-1.88q-2.23-1.11-4.5-2.14a16.86,16.86,0,0,0-4-1.17,14.47,14.47,0,0,0-4-.06,11.33,11.33,0,0,0-3.83,1.2A10.78,10.78,0,0,0,16.06,40a11.63,11.63,0,0,0-2.37,4.5,16.18,16.18,0,0,0-.55,5.09c0,.69.09,1.34.13,2a2.77,2.77,0,0,1-.58,1.81,3.75,3.75,0,0,1-1.27,1.36,4.14,4.14,0,0,1-1.78.46,8.1,8.1,0,0,1-2.59-.39,3.1,3.1,0,0,1-1.69-1.17,4.33,4.33,0,0,1-.65-1.94,19.27,19.27,0,0,1-.1-5.09A14.78,14.78,0,0,1,6,41.77a16.1,16.1,0,0,1,2.62-4.05,17.37,17.37,0,0,1,3.6-3.08,21.67,21.67,0,0,1,4.28-2.14,24.45,24.45,0,0,1,4.6-1.23,46,46,0,0,1,8.69-.75,54.85,54.85,0,0,1,8.75.75,29.85,29.85,0,0,1,4,.9c1.29.39,2.59.77,3.89,1.14s2.6.67,3.92.91a17,17,0,0,0,4,.22,15.7,15.7,0,0,0,3.24-.58,19.54,19.54,0,0,0,3-1.17A25.44,25.44,0,0,0,62.9,31.3a3.54,3.54,0,0,1,2.43-.62,3.05,3.05,0,0,1,2.43,1.23C68.25,32.65,68.05,33.58,67.14,34.7Z"/><path class="cls-1" d="M47.5,67c.6-1.17,1.21-2.39,1.81-3.67s1.15-2.51,1.62-3.72A4.26,4.26,0,0,1,49.22,58a5.55,5.55,0,0,1-.75-2.26,6.68,6.68,0,0,1,.23-2.53A6.31,6.31,0,0,1,50,50.78,4.87,4.87,0,0,1,52,49.29a6.41,6.41,0,0,1,2.59-.49,4.75,4.75,0,0,1,2.27.59A2.12,2.12,0,0,1,58,51.1a6.75,6.75,0,0,1-.29,2.6,20.23,20.23,0,0,1-.94,2.65q4.27-1.82,7.16-1.2a4.52,4.52,0,0,1,3.6,3.8,9.46,9.46,0,0,1-.06,3.66A31.71,31.71,0,0,1,66.33,67q-.75,2.23-1.59,4.41c-.56,1.45-1,2.74-1.33,3.86A7.82,7.82,0,0,0,63,77.91c.07.67.49,1,1.27.87a3.51,3.51,0,0,0,2.11-1.19,23.32,23.32,0,0,0,2.33-2.82q1.2-1.69,2.43-3.73T73.62,67a7,7,0,0,1,2-2.21,1.75,1.75,0,0,1,1.56-.32c.39.17.62.59.68,1.26a4.54,4.54,0,0,1-.62,2.43c-.47,1-1.08,2.15-1.81,3.47s-1.55,2.67-2.43,4a47.91,47.91,0,0,1-2.85,4A17.94,17.94,0,0,1,67,82.8a10.11,10.11,0,0,1-3.92,1.79,9.11,9.11,0,0,1-3.89,0A7.14,7.14,0,0,1,56,83a5.29,5.29,0,0,1-1.71-2.92,8.81,8.81,0,0,1,0-3.69,30.1,30.1,0,0,1,1.07-4.06c.45-1.36.94-2.7,1.45-4s.93-2.5,1.24-3.54.47-1.73.64-2.46a4.14,4.14,0,0,0,.1-1.85,1.22,1.22,0,0,0-.91-1,5.1,5.1,0,0,0-2.49.23h-.07l-4.21,8.42a4.92,4.92,0,0,1-1.75,2,1.77,1.77,0,0,1-1.56.19,1.48,1.48,0,0,1-.81-1.2A3.63,3.63,0,0,1,47.5,67Z"/><path class="cls-1" d="M79.59,55.51a2.46,2.46,0,0,1,2-1.68,6,6,0,0,1,3.08.29,6.69,6.69,0,0,1,2.66,1.72,3,3,0,0,1,.84,2.65,15.21,15.21,0,0,1-1.65,4.41q-1.26,2.34-2.69,4.73t-2.6,4.67a13.42,13.42,0,0,0-1.42,4.09,2.24,2.24,0,0,0,.68,2.36c.62.46,1.56.36,2.82-.29A11.25,11.25,0,0,0,86.43,76a48.89,48.89,0,0,0,3.37-4.08c1.14-1.53,2.27-3.14,3.37-4.83s2.12-3.31,3-4.86,1.73-2.93,2.4-4.12,1.15-2.06,1.45-2.62a2.64,2.64,0,0,1,1.46-1.3,4.49,4.49,0,0,1,2-.19,7.36,7.36,0,0,1,4.08,1.91,4,4,0,0,1,1.07,1.62,2.12,2.12,0,0,1-.16,1.72,44.7,44.7,0,0,0-5,13.19,13.43,13.43,0,0,0-.22,4.7c.21,1.21.8,1.77,1.75,1.68a3.46,3.46,0,0,0,2.1-1.19,22.43,22.43,0,0,0,2.34-2.82q1.2-1.69,2.43-3.73T114.4,67a6.8,6.8,0,0,1,2-2.21,1.75,1.75,0,0,1,1.56-.32c.39.17.61.59.68,1.26a4.64,4.64,0,0,1-.62,2.43c-.47,1-1.11,2.2-1.91,3.6s-1.66,2.83-2.59,4.28-1.89,2.81-2.89,4.08a15.86,15.86,0,0,1-2.85,3,9.17,9.17,0,0,1-3,1.4,10,10,0,0,1-3.47.35A8.41,8.41,0,0,1,98,83.87a6.19,6.19,0,0,1-2.56-2.49,9.75,9.75,0,0,1-1.29-3.44,15,15,0,0,1-.07-4.67,49.19,49.19,0,0,1-3.86,4.8,29.75,29.75,0,0,1-4.5,4.09,16.05,16.05,0,0,1-4.64,2.33,11.81,11.81,0,0,1-4.73.55,7,7,0,0,1-3.92-1.65,6.67,6.67,0,0,1-2.14-4.22,11.57,11.57,0,0,1,.42-5.77,37,37,0,0,1,2.5-5.77c1-1.94,2.16-3.91,3.37-5.89A34.55,34.55,0,0,0,79.59,55.51Z"/><path class="cls-1" d="M114,45.2q2.2-.2,4.47-.48c1.51-.2,3-.4,4.54-.62a33.4,33.4,0,0,1,2-2.79,19.63,19.63,0,0,1,2.17-2.26,8.1,8.1,0,0,1,3-1.79,4.47,4.47,0,0,1,2.66,0,3.17,3.17,0,0,1,1.81,1.56,5.84,5.84,0,0,1,.59,3q4.28-.78,7.26-1.23a9.12,9.12,0,0,1,4-.06,2.11,2.11,0,0,1,1.3,1.45,3.79,3.79,0,0,1-.07,2.08,5.21,5.21,0,0,1-1.13,2,3.66,3.66,0,0,1-2,1.16,8.34,8.34,0,0,1-1.52.23l-2.59.23c-1,.08-2.14.16-3.38.22l-3.85.23a39.63,39.63,0,0,1-3.34,5q-2,2.63-4.64,5.54c-.13.52-.28,1.07-.45,1.66s-.37,1.24-.58,2-.52,1.74-.78,2.89-.5,2.34-.71,3.6a37,37,0,0,0-.46,3.72,19.87,19.87,0,0,0,0,3.28,6.37,6.37,0,0,0,.58,2.3,1.29,1.29,0,0,0,1.43.74,3.51,3.51,0,0,0,2.11-1.19,23.32,23.32,0,0,0,2.33-2.82q1.2-1.69,2.43-3.73T133.66,67a6.8,6.8,0,0,1,2-2.21,1.73,1.73,0,0,1,1.55-.32c.39.17.62.59.68,1.26a4.61,4.61,0,0,1-.61,2.43q-.72,1.5-1.92,3.6c-.8,1.41-1.66,2.83-2.59,4.28s-1.89,2.81-2.88,4.08a16.2,16.2,0,0,1-2.86,3,8.06,8.06,0,0,1-3,1.33,10.1,10.1,0,0,1-3.5.23,8.08,8.08,0,0,1-3.27-1.1,5.62,5.62,0,0,1-2.3-2.66,14.31,14.31,0,0,1-1.24-4.6,28.11,28.11,0,0,1,0-5.35,41.35,41.35,0,0,1,1-5.8q.7-3,1.62-6c.52-1.77,1.11-3.54,1.78-5.29a55.24,55.24,0,0,1,2.24-5.09c-1.82.09-3.33.16-4.54.2s-2,.09-2.34.13a1.18,1.18,0,0,1-1.2-.42,1.89,1.89,0,0,1-.38-1.3,2.17,2.17,0,0,1,.55-1.36A2.25,2.25,0,0,1,114,45.2Z"/><path class="cls-1" d="M146.62,58.62a59.22,59.22,0,0,0-3.14,7.65,38.84,38.84,0,0,0-1.59,6.52,10.91,10.91,0,0,0,.1,4.47c.32,1.1.94,1.61,1.84,1.52a3.51,3.51,0,0,0,2.11-1.19,22.43,22.43,0,0,0,2.33-2.82q1.2-1.69,2.44-3.73T153.17,67a6.8,6.8,0,0,1,2-2.21,1.73,1.73,0,0,1,1.55-.32q.59.26.69,1.26a4.74,4.74,0,0,1-.62,2.43c-.48,1-1.11,2.2-1.91,3.6s-1.67,2.83-2.6,4.28-1.88,2.81-2.85,4.08a15.2,15.2,0,0,1-2.82,3,7.72,7.72,0,0,1-3,1.3,9.56,9.56,0,0,1-3.5.13,10.49,10.49,0,0,1-3.43-1.13,7.19,7.19,0,0,1-2.7-2.5,10,10,0,0,1-1.36-5.12,32.43,32.43,0,0,1,.55-7,47.74,47.74,0,0,1,2-7.42,35.9,35.9,0,0,1,3.08-6.55,2.32,2.32,0,0,1,2.21-1,8.17,8.17,0,0,1,3.17.65,6.5,6.5,0,0,1,2.53,1.81A2.1,2.1,0,0,1,146.62,58.62Zm-5.51-10.18a5.92,5.92,0,0,1,.1-3.43,6.69,6.69,0,0,1,1.72-2.66,7.67,7.67,0,0,1,2.69-1.65,6.48,6.48,0,0,1,3-.39,5.19,5.19,0,0,1,2.62,1A4.92,4.92,0,0,1,152.91,44a6,6,0,0,1,0,3.66,6.19,6.19,0,0,1-1.72,2.63,7.34,7.34,0,0,1-2.72,1.52,7.23,7.23,0,0,1-3.08.29A5.67,5.67,0,0,1,142.7,51,4.36,4.36,0,0,1,141.11,48.44Z"/><text class="cls-2" transform="translate(42.47 104.77)">FRESCO</text><path class="cls-3" d="M61.74,4.94q-7.4,27.18,17.89,31l-2.12-4-6-11.23L78.9,31.1l2.61,3.67Q89.37,10.44,61.74,4.94Z"/><path class="cls-3" d="M118.8,0q5.39,36.77-28.33,37.77l3.41-4.87,9.62-13.76L92.2,31.56,88.2,36Q81.75,2.84,118.8,0Z"/></svg>